<svg width="32" height="32" viewBox="0 0 32 32" fill="none" xmlns="http://www.w3.org/2000/svg">
<path d="M8 10.6667C8 8.54492 8.84286 6.51009 10.3431 5.0098C11.8434 3.50951 13.8783 2.66666 16 2.66666C18.1217 2.66666 20.1566 3.50951 21.6569 5.0098C23.1571 6.51009 24 8.54492 24 10.6667C24 20 28 22.6667 28 22.6667H4C4 22.6667 8 20 8 10.6667Z" stroke="white" stroke-width="2" stroke-linecap="round" stroke-linejoin="round"/>
<path d="M13.7334 28C13.9566 28.4059 14.2847 28.7445 14.6834 28.9803C15.0821 29.216 15.5368 29.3404 16.0001 29.3404C16.4633 29.3404 16.918 29.216 17.3167 28.9803C17.7155 28.7445 18.0436 28.4059 18.2667 28" stroke="white" stroke-width="2" stroke-linecap="round" stroke-linejoin="round"/>
</svg>
