<svg width="24" height="24" viewBox="0 0 24 24" fill="none" xmlns="http://www.w3.org/2000/svg">
<path d="M5.38826 10.0888C5.58826 10.5166 6.0716 11.35 6.0716 11.35L11.6827 2L6.21049 5.85556C5.8827 6.07779 5.61604 6.37223 5.43271 6.71668C5.18289 7.24256 5.05004 7.81636 5.04333 8.39852C5.03661 8.98069 5.15619 9.55736 5.39382 10.0888H5.38826ZM3.17159 13.1666C3.23267 14.059 3.48208 14.9284 3.90341 15.7175C4.32474 16.5064 4.90843 17.1973 5.61604 17.7445L11.6771 22C11.6771 22 7.89382 16.5001 4.69937 11.0167C4.37502 10.4378 4.15678 9.80573 4.05493 9.15001C4.01047 8.85352 4.01047 8.55206 4.05493 8.25557L3.81048 8.7278C3.48826 9.39446 3.26604 10.1056 3.16048 10.8389C3.09381 11.6167 3.10492 12.3944 3.17715 13.1722L3.17159 13.1666ZM18.6105 13.9111C18.3964 13.4835 18.1685 13.0629 17.9271 12.6501L12.3216 22L17.7938 18.15C18.1161 17.9278 18.3827 17.6333 18.5716 17.2833C18.8205 16.7571 18.9525 16.1831 18.9582 15.601C18.964 15.0188 18.8434 14.4422 18.6049 13.9111H18.6105ZM20.8272 10.8333C20.7661 9.94094 20.5167 9.07163 20.0953 8.2826C19.674 7.49355 19.0903 6.80272 18.3827 6.25556L12.3216 2C12.3216 2 16.1049 7.50001 19.2994 12.9833C19.6216 13.5611 19.8382 14.1945 19.9383 14.85C19.9828 15.1444 19.9828 15.4501 19.9383 15.7445L20.1827 15.2722C20.5105 14.6055 20.7271 13.8945 20.8383 13.1611C20.905 12.3833 20.8938 11.6055 20.8216 10.8277L20.8272 10.8333Z" fill="url(#paint0_linear_199_4396)"/>
<defs>
<linearGradient id="paint0_linear_199_4396" x1="6.76465" y1="4.14287" x2="20.5181" y2="20.4328" gradientUnits="userSpaceOnUse">
<stop stop-color="#7C97FA"/>
<stop offset="1" stop-color="#53B1EF"/>
</linearGradient>
</defs>
</svg>
