<svg width="16" height="16" viewBox="0 0 16 16" fill="none" xmlns="http://www.w3.org/2000/svg">
<path d="M7.99976 1.3335V6.26016L12.1664 8.1235L7.99976 1.3335Z" fill="#8FFCF3"/>
<path d="M7.99992 1.3335L3.83325 8.1235L7.99992 6.26016V1.3335Z" fill="#CABCF8"/>
<path d="M7.99976 11.3166V14.6666L12.1664 8.8999L7.99976 11.3166Z" fill="#CBA7F5"/>
<path d="M7.99992 14.6666V11.3166L3.83325 8.8999L7.99992 14.6666Z" fill="#74A0F3"/>
<path d="M7.99976 10.5402L12.1664 8.12363L7.99976 6.26025V10.5402Z" fill="#CBA7F5"/>
<path d="M3.83325 8.12363L7.99992 10.5402V6.26025L3.83325 8.12363Z" fill="#74A0F3"/>
<path fill-rule="evenodd" clip-rule="evenodd" d="M7.99992 10.5402L3.83325 8.1235L7.99992 1.3335L12.1667 8.1235L7.99992 10.5402ZM4.10992 7.92683L7.93325 1.69683V6.22683L4.10992 7.92683ZM4.05325 8.09683L7.93325 6.3735V10.3468L4.05325 8.09683ZM8.06659 6.3735V10.3468L11.9433 8.09683L8.06659 6.3735ZM8.06659 6.22683L11.8899 7.92683L8.06659 1.69683V6.22683Z" fill="#202699"/>
<path fill-rule="evenodd" clip-rule="evenodd" d="M7.99992 11.2636L3.83325 8.89697L7.99992 14.6669L12.1667 8.89697L7.99992 11.2636ZM4.29992 9.31364L7.93325 11.3802V14.347L4.29992 9.31364ZM8.06659 11.3802V14.347L11.7 9.31364L8.06659 11.3802Z" fill="#202699"/>
</svg>
