<svg width="25" height="24" viewBox="0 0 25 24" fill="none" xmlns="http://www.w3.org/2000/svg">
<path d="M11.5 15H13.5C14.0304 15 14.5391 14.7893 14.9142 14.4142C15.2893 14.0391 15.5 13.5304 15.5 13C15.5 12.4696 15.2893 11.9609 14.9142 11.5858C14.5391 11.2107 14.0304 11 13.5 11H10.5C9.9 11 9.4 11.2 9.1 11.6L3.5 17" stroke="#00C853" stroke-width="2" stroke-linecap="round" stroke-linejoin="round"/>
<path d="M7.5 20.9998L9.1 19.5998C9.4 19.1998 9.9 18.9998 10.5 18.9998H14.5C15.6 18.9998 16.6 18.5998 17.3 17.7998L21.9 13.3998C22.2859 13.0351 22.5111 12.5321 22.5261 12.0014C22.5411 11.4706 22.3447 10.9557 21.98 10.5698C21.6153 10.1839 21.1123 9.95867 20.5816 9.94367C20.0508 9.92867 19.5359 10.1251 19.15 10.4898L14.95 14.3898" stroke="#00C853" stroke-width="2" stroke-linecap="round" stroke-linejoin="round"/>
<path d="M2.5 16L8.5 22" stroke="#00C853" stroke-width="2" stroke-linecap="round" stroke-linejoin="round"/>
<path d="M16.5001 11.9001C18.1017 11.9001 19.4001 10.6017 19.4001 9.0001C19.4001 7.39847 18.1017 6.1001 16.5001 6.1001C14.8985 6.1001 13.6001 7.39847 13.6001 9.0001C13.6001 10.6017 14.8985 11.9001 16.5001 11.9001Z" stroke="#00C853" stroke-width="2" stroke-linecap="round" stroke-linejoin="round"/>
<path d="M6.5 8C8.15685 8 9.5 6.65685 9.5 5C9.5 3.34315 8.15685 2 6.5 2C4.84315 2 3.5 3.34315 3.5 5C3.5 6.65685 4.84315 8 6.5 8Z" stroke="#00C853" stroke-width="2" stroke-linecap="round" stroke-linejoin="round"/>
</svg>
