<svg width="16" height="16" viewBox="0 0 16 16" fill="none" xmlns="http://www.w3.org/2000/svg">
<path fill-rule="evenodd" clip-rule="evenodd" d="M7.99985 14.6668C11.6957 14.6668 14.6666 11.6959 14.6666 8.0001C14.6666 4.30432 11.6957 1.3335 7.99985 1.3335C4.30407 1.3335 1.33325 4.30432 1.33325 8.0001C1.33325 11.6959 4.30407 14.6668 7.99985 14.6668ZM9.83345 9.0539C9.83345 8.08316 9.25012 7.74976 8.08345 7.6123C7.25019 7.49983 7.08359 7.27896 7.08359 6.8873C7.08359 6.4998 7.36265 6.24984 7.91685 6.24984C8.41685 6.24984 8.69599 6.41648 8.83352 6.83316C8.86272 6.9165 8.94605 6.97063 9.02939 6.97063H9.47105C9.58352 6.97063 9.66685 6.8873 9.66685 6.7789V6.74976C9.55439 6.13726 9.05432 5.55398 8.41685 5.4998V4.88731C8.41685 4.77481 8.33352 4.69147 8.19605 4.66648H7.82932C7.71685 4.66648 7.61272 4.7498 7.58359 4.88731V5.4998C6.75019 5.61231 6.19602 6.24984 6.19602 6.94563C6.19602 7.8623 6.75019 8.22063 7.91685 8.3623C8.69599 8.49976 8.94605 8.6665 8.94605 9.11223C8.94605 9.5539 8.55432 9.8623 8.02932 9.8623C7.30432 9.8623 7.05439 9.5539 6.97105 9.13736C6.94599 9.02896 6.86265 8.97063 6.77932 8.97063H6.30433C6.19602 8.97063 6.1127 9.0539 6.1127 9.1665V9.1957C6.22101 9.8873 6.66685 10.3623 7.58359 10.4998V11.1165C7.58359 11.229 7.66692 11.3039 7.80439 11.3331H8.20432C8.31272 11.3331 8.38772 11.2582 8.41685 11.1165V10.4998C9.25012 10.3623 9.83345 9.80396 9.83345 9.0539ZM5.19467 11.1295C5.59753 11.4988 6.06953 11.7847 6.58345 11.9705C6.66685 12.0288 6.75019 12.1372 6.75019 12.2206V12.6122C6.75019 12.6664 6.75019 12.6956 6.72099 12.7206C6.69605 12.833 6.58345 12.8872 6.47097 12.833C5.45987 12.5112 4.57731 11.8762 3.95102 11.0196C3.32473 10.1631 2.98716 9.12956 2.98716 8.0685C2.98716 7.00736 3.32473 5.97379 3.95102 5.11726C4.57731 4.26072 5.45987 3.62564 6.47097 3.30388C6.50013 3.27888 6.55428 3.27888 6.58345 3.27888C6.69605 3.30388 6.75019 3.38721 6.75019 3.49972V3.88722C6.75019 4.02888 6.69605 4.11222 6.58345 4.16638C5.44599 4.58304 4.52933 5.47054 4.11266 6.63718C3.92213 7.14943 3.83498 7.69436 3.85621 8.24043C3.87745 8.78656 4.00666 9.32303 4.23639 9.81883C4.46612 10.3148 4.79183 10.7602 5.19467 11.1295ZM9.27932 3.41638C9.30432 3.30388 9.41679 3.24971 9.52925 3.30388C10.2931 3.55212 10.9865 3.9792 11.5517 4.54959C12.1171 5.11996 12.5379 5.81713 12.7793 6.58302C13.6126 9.22056 12.1668 12.0288 9.52925 12.8622C9.50012 12.8872 9.44599 12.8872 9.41679 12.8872C9.30432 12.8622 9.25012 12.7789 9.25012 12.6664V12.2789C9.25012 12.1372 9.30432 12.0539 9.41679 11.9996C10.5543 11.583 11.471 10.6955 11.8877 9.52883C12.0781 9.0167 12.1653 8.47176 12.1441 7.92563C12.1229 7.37956 11.9937 6.8431 11.7639 6.34716C11.5342 5.8513 11.2085 5.40585 10.8056 5.03654C10.4028 4.66724 9.93079 4.3814 9.41679 4.19554C9.33345 4.13721 9.25012 4.02888 9.25012 3.91638V3.52888C9.25012 3.47055 9.25012 3.44554 9.27932 3.41638Z" fill="#2775CA"/>
</svg>
